Patient4_TMGait_0pt4_02_right_05_EMG.mot
version=1
nRows=20
nColumns=33
inDegrees=no
endheader
time	1LAddLong	2LGlutMax	3LGlutMed	4LIliopsoas	5LSemiMemb	6LBicFemLong	7LRecFem	8LVastMed	9LVastLat	10LGasMed	11LTibAnt	12lTibPost	13LPeroneusLong	14LSol	15LExtDigLong	16LFlexDigLong	17RAddLong	18RGlutMax	19RGlutMed	20RIliopsoas	21RSemiMemb	22RBicFemLong	23RRecFem	24RVastMed	25RVastLat	26RGasMed	27RTibAnt	28RTibPost	29RPeroneusLong	30RSol	31RExtDigLong	32RFlexDigLong
6.47	-0.006409	0.034485	0.00946	-0.007019	0.019684	-0.046997	0.23102	-0.010376	0.13428	-0.038452	-0.15335	-0.003662	-0.02182	0.13214	-0.24857	-0.010376	-0.016022	-0.9935	-0.10681	0.049133	-0.046997	-0.01297	0.39536	-0.13382	-0.64575	0.005951	0.008545	0.004425	0.30121	-0.63675	-0.000458	-0.01297
6.471	0.011292	0.066376	0.00351	-0.003357	0.015869	-0.046082	0.24109	-0.004578	0.11948	-0.041809	-0.23468	-0.002289	0.022278	0.02655	-0.17532	-0.022736	-0.045166	-0.97229	-0.61172	0.054321	0.34714	-0.23361	0.29159	0.097809	-0.3331	0.001984	-0.007019	0.008087	0.83466	-0.20035	0.001221	-0.010986
6.472	0.001984	0.075989	-0.014343	-0.002747	0.014648	-0.049744	0.22247	0.001068	0.12726	-0.074615	-0.059204	0.002441	0.043945	-0.030212	-0.25436	-0.014038	-0.027924	-0.91721	-0.32013	-0.080261	0.15259	-0.20569	0.12817	0.21149	-0.18662	-0.003967	-0.008545	-0.001221	-0.021362	0.39078	-0.004425	-0.012665
6.473	0.000458	0.055237	-0.037231	-0.004272	0.015564	-0.04776	0.15564	-0.004578	0.11566	-0.10895	-0.00824	0.002899	0.12573	0.019989	0.051575	-0.001526	-0.016937	-1.0243	0.26428	-0.12253	-0.090637	-0.12665	0.16983	0.1442	-0.16144	-0.014343	0.009003	-0.009155	-0.25406	0.31601	-0.00061	-0.014038
6.474	0.003357	0.047913	-0.056	-0.001984	0.014954	-0.035858	0.17685	-0.000916	0.099792	-0.058899	0.061035	-0.001373	0.13306	0.00824	-0.006714	-0.009613	0.006866	-1.1792	-0.22064	-0.095673	0.019989	-0.17288	0.27115	0.003815	-0.085144	-0.009155	0.032654	-0.003662	-0.11169	0.13733	-0.004272	-0.009766
6.475	0.005188	0.007019	-0.043488	-0.007782	0.016479	-0.047913	0.13489	-0.003204	0.11154	-0.026703	-0.29739	0.005493	0.15213	-0.10071	-0.5632	-0.02533	0.022736	-1.2816	-1.0577	0.007324	0.21271	-0.21957	0.23682	-0.00412	-0.063934	0	0.04364	-0.008392	-0.010223	0.014191	-0.004425	-0.010071
6.476	0.004425	0.06485	-0.014038	0.005798	0.006409	-0.037079	0.086212	0.005493	0.11017	-0.012207	-0.22873	0.003815	0.030518	-0.072784	-0.38559	-0.020905	0.034332	-1.2596	-0.15625	0.020447	0.052032	-0.121	0.21835	0.039825	-0.057983	0.008087	0.025787	-0.002594	0.10712	-0.018005	-0.001221	-0.015411
6.477	0.002747	0.095978	-0.01709	0.036774	0.014648	-0.032654	0.058594	0.002441	0.11643	0	-0.14557	0.007477	-0.0383	-0.042267	-0.26382	-0.031433	0.038452	-1.2444	-0.10666	0.063324	-0.2713	-0.010223	0.28671	0.055695	-0.04837	0.008392	0.023193	-0.004578	0.1944	-0.02121	-0.001984	-0.008087
6.478	0.003967	0.077057	-0.021515	0.045929	0.018005	-0.039825	0.06546	-0.001678	0.13321	-0.010376	-0.12009	0.00351	-0.011444	-0.14389	-0.14725	-0.015869	0.030212	-1.1679	-0.58395	0.050812	-0.61722	0.029144	0.30212	0.091553	-0.021973	0.006866	0.042877	0.023956	0.024719	0.051727	-0.009003	-0.01358
6.479	0.001984	0.072937	-0.00473	0.029297	0.007172	-0.032043	0.035858	-0.000916	0.13458	-0.005646	-0.15457	0.003815	0.000305	-0.09903	-0.04303	-0.00885	-0.009155	-1.1028	-0.42038	-0.089874	-0.41275	-0.011292	0.27481	0.078278	-0.046844	-0.018463	0.099945	0.053558	-1.0289	0.024261	-0.001678	-0.010376
6.48	0.000916	0.068512	-0.020752	0.021973	0.005035	-0.034485	0.076294	-0.005493	0.13565	-0.020142	-0.20172	0.002136	-0.007935	0.034943	0.059357	-0.014343	0.00473	-1.1259	0.18662	-0.11749	0.075073	-0.043488	0.24017	-0.026093	-0.09201	-0.091553	0.078278	-0.22446	-1.0406	-0.13473	-0.005341	-0.010681
6.481	-0.001068	0.072632	-0.031281	0.008392	0.008392	-0.0177	0.23086	0.000153	0.13123	-0.019684	-0.15869	-0.001068	-0.031128	0.093231	0.13901	-0.01236	0.021515	-1.2624	0.011292	-0.11322	-0.011444	-0.033264	0.28397	-0.09613	-0.1297	-0.047455	-0.02533	-0.4303	-0.1416	-0.2536	-0.008087	-0.010986
6.482	-0.004272	0.064087	-0.046234	0.027161	0.005951	-0.023346	0.29587	-0.002136	0.15167	-0.022888	0.029907	-0.004272	-0.048676	0.077972	0.11917	-0.018311	0.02243	-1.3112	0.81039	-0.11643	0.074158	-0.017548	0.17624	-0.12817	-0.16266	0.041809	-0.028992	-0.068817	0.49133	-0.2771	-0.00885	-0.026855
6.483	-0.006866	0.056152	-0.052795	0.011139	0.009155	-0.040131	0.31693	0.00412	0.13382	-0.030365	0.15839	0.004425	-0.030823	0.046844	0.28137	-0.004578	0.013275	-1.4212	0.045319	-0.044861	0.17624	-0.033569	0.15823	-0.10407	-0.19913	0.029144	0.002899	0.11627	0.57114	-0.35095	-0.003967	-0.013733
6.484	-0.002747	0.090637	-0.050812	0.001678	0.013733	-0.028687	0.38788	0.002594	0.16052	-0.069275	-0.007324	0.001984	0.016022	0.067139	0.33981	0.00061	-0.010834	-1.3435	0.40924	-0.000153	0.022888	-0.053864	0.11612	-0.19134	-0.14893	-0.028992	-0.00412	0.16525	0.50171	-0.67368	-0.001068	-0.017548
6.485	-0.002441	0.10941	-0.069427	-0.006409	0.013275	-0.032043	0.37659	-0.002441	0.16174	-0.096893	-0.072174	0.002747	0.047607	0.06134	0.39017	0.022125	-0.040131	-1.4658	0.54169	0.10956	-0.15869	-0.031738	-0.010376	-0.12466	0.066681	-0.030518	-0.011292	0.25726	0.45364	-0.35599	-0.003815	-0.012512
6.486	-0.00351	0.078888	-0.091705	0.016785	0.014191	-0.02655	0.22217	-0.005035	0.19409	-0.088806	-0.028992	0.005188	-0.011292	0.002289	0.40146	0.007477	-0.027466	-1.5183	-0.1712	0.22858	-0.14816	-0.06073	-0.04364	0.001221	0.24246	-0.007629	-0.028687	0.15762	0.3186	0.22293	-0.001221	-0.003815
6.487	-0.001526	0.070496	-0.11566	0.052032	0.00885	-0.041199	0.054474	-0.002899	0.19104	-0.058594	-0.017548	0.002289	-0.029755	0.003052	0.11658	-0.00412	-0.027161	-1.4906	-0.33554	0.112	-0.001526	-0.009003	-0.079346	0.12405	0.27588	-0.000458	-0.033875	0.051117	0.16083	0.91751	-0.009003	-0.010223
6.488	-0.001831	0.038452	-0.12238	0.074005	0.021667	-0.019379	-0.057373	0	0.19791	-0.067444	-0.098114	0.005646	-0.003052	0.01297	0.42297	-0.0177	-0.050049	-1.4037	-0.76172	0.060425	0.16876	0.10925	0.067902	0.14496	0.19562	-0.000916	0.02533	0.073853	0.006561	0.45792	-0.005188	-0.015106
6.489	-0.000305	-0.00061	-0.15442	0.024567	0.0177	-0.007629	-0.12741	0.007782	0.22919	-0.04715	-0.055847	0.004272	-0.018005	-0.010376	-0.23483	-0.011139	-0.062408	-1.3861	-1.2625	0.093536	0.21606	0.06958	0.12466	0.11032	0.017395	0.019226	0.013123	0.03067	-0.009003	0.13367	-0.003052	-0.013123
